<?xml version="1.0" encoding="UTF-8" standalone="no"?>
<svg xmlns:rdf="http://www.w3.org/1999/02/22-rdf-syntax-ns#" style="enable-background:new 0 0 512 512" xmlns="http://www.w3.org/2000/svg" xml:space="preserve" height="64px" viewBox="0 0 512 512" width="64px" version="1.1" y="0px" x="0px" xmlns:cc="http://creativecommons.org/ns#" xmlns:dc="http://purl.org/dc/elements/1.1/"><metadata><rdf:RDF><cc:Work rdf:about=""><dc:format>image/svg+xml</dc:format><dc:type rdf:resource="http://purl.org/dc/dcmitype/StillImage"/><dc:title/></cc:Work></rdf:RDF></metadata><path d="m256 32c77.312 0 140 62.688 140 140 0 76.125-45.875 85-54.5 168 0 7.75-6.25 14-14 14h-143c-7.75 0-14-6.25-14-14h-0.031c-8.59-83-54.47-91.88-54.47-168 0-77.312 62.69-140 140-140m70 336c7.75 0 14 6.25 14 14s-6.25 14-14 14h-140c-7.75 0-14-6.25-14-14s6.25-14 14-14h140m0 42c7.75 0 14 6.25 14 14s-6.25 14-14 14h-140c-7.75 0-14-6.25-14-14s6.25-14 14-14h140m-14 42c0 15.469-12.531 28-28 28h-56c-15.469 0-28-12.531-28-28h112m-56-452c-94.84 0-172 77.156-172 172 0 47.625 15.563 74.969 29.25 99.125 11.625 20.438 21.688 38.156 25.281 71.094 0.344 7.313 2.438 14.188 5.844 20.219-2.81 5.95-4.37 12.57-4.37 19.57 0 7.562 1.813 14.688 5.063 21-3.25 6.312-5.063 13.438-5.063 21 0 19.719 12.469 36.562 29.938 43.094 6.68 25.82 30.18 44.91 58.06 44.91h56c27.875 0 51.375-19.094 58.062-44.906 17.47-6.53 29.94-23.37 29.94-43.09 0-7.562-1.844-14.688-5.094-21 3.25-6.312 5.094-13.438 5.094-21 0-7-1.562-13.625-4.375-19.531 3.406-6.062 5.469-12.969 5.812-20.281 3.625-32.905 13.656-50.594 25.281-71.062 13.73-24.13 29.29-51.51 29.29-99.13 0-94.844-77.16-172-172-172z"/></svg>
