<?xml version="1.0" encoding="UTF-8" standalone="no"?>
<svg xmlns:rdf="http://www.w3.org/1999/02/22-rdf-syntax-ns#" style="enable-background:new 0 0 512 512" xmlns="http://www.w3.org/2000/svg" xml:space="preserve" height="64px" viewBox="0 0 512 512" width="64px" version="1.1" y="0px" x="0px" xmlns:cc="http://creativecommons.org/ns#" xmlns:dc="http://purl.org/dc/elements/1.1/"><metadata><rdf:RDF><cc:Work rdf:about=""><dc:format>image/svg+xml</dc:format><dc:type rdf:resource="http://purl.org/dc/dcmitype/StillImage"/><dc:title/></cc:Work></rdf:RDF></metadata><path d="m256 32c77.312 0 140 62.688 140 140 0 76.125-45.875 85-54.5 168 0 7.75-6.25 14-14 14h-143c-7.75 0-14-6.25-14-14h-0.031c-8.59-83-54.47-91.88-54.47-168 0-77.312 62.69-140 140-140m70 336c7.75 0 14 6.25 14 14s-6.25 14-14 14h-140c-7.75 0-14-6.25-14-14s6.25-14 14-14h140m0 42c7.75 0 14 6.25 14 14s-6.25 14-14 14h-140c-7.75 0-14-6.25-14-14s6.25-14 14-14h140m-14 42c0 15.469-12.531 28-28 28h-56c-15.469 0-28-12.531-28-28h112m-56-452c-94.84 0-172 77.156-172 172 0 47.625 15.563 74.969 29.25 99.125 11.625 20.438 21.688 38.156 25.281 71.094 0.344 7.313 2.438 14.188 5.844 20.219-2.81 5.95-4.37 12.57-4.37 19.57 0 7.562 1.813 14.688 5.063 21-3.25 6.312-5.063 13.438-5.063 21 0 19.719 12.469 36.562 29.938 43.094 6.68 25.82 30.18 44.91 58.06 44.91h56c27.875 0 51.375-19.094 58.062-44.906 17.47-6.53 29.94-23.37 29.94-43.09 0-7.562-1.844-14.688-5.094-21 3.25-6.312 5.094-13.438 5.094-21 0-7-1.562-13.625-4.375-19.531 3.406-6.062 5.469-12.969 5.812-20.281 3.625-32.905 13.656-50.594 25.281-71.062 13.73-24.13 29.29-51.51 29.29-99.13 0-94.844-77.16-172-172-172z"/><path fill="#ffe680" d="m22.549 44.144c-0.30343-0.09539-0.69185-0.37366-0.87556-0.62726-0.21828-0.30133-0.29945-0.60308-0.39991-1.4866-0.15946-1.4025-0.49833-3.0111-0.91115-4.3252-0.50535-1.6086-1.3308-3.3832-2.6949-5.7937-1.5468-2.7333-2.1717-4.1445-2.6129-5.9005-0.66426-2.6438-0.70365-5.6266-0.10966-8.3034 1.1265-5.0765 4.4975-9.4211 9.136-11.775 1.9492-0.98902 3.9192-1.5738 6.1363-1.8214 0.86384-0.096481 2.8985-0.082134 3.7894 0.02672 3.8535 0.47084 7.3147 2.1048 10.088 4.7625 4.1352 3.9625 6.0257 9.5911 5.1821 15.428-0.35924 2.4857-1.0262 4.197-2.9863 7.6626-1.674 2.9597-2.3899 4.6026-2.9632 6.7997-0.28476 1.0913-0.49583 2.2509-0.64131 3.5233-0.11443 1.0008-0.33413 1.3784-1.0092 1.7345l-0.27273 0.14389-9.318 0.01008c-7.4823 0.0081-9.3611-0.0035-9.5371-0.05881z" transform="scale(8)"/></svg>
